<svg id="Layer_1" height="512" viewBox="0 0 512 512" width="512" xmlns="http://www.w3.org/2000/svg" data-name="Layer 1"><path d="m403.79 232.64c0 45.59-22.54 86.02-57.15 112.04a73.443 73.443 0 0 0 -29.43 53.68h-122.41a73.367 73.367 0 0 0 -29.78-54.04c-34.8-25.84-56.97-66.44-56.81-112.18.27-74.03 61.61-136.71 138.51-141.23 85.8-5.04 157.07 60.37 157.07 141.73z" fill="#7ce5e9"/><path d="m195.02 344.14c-34.8-25.84-56.97-66.35-56.81-112.09.263-72.183 58.59-133.521 132.79-140.729a156.516 156.516 0 0 0 -24.278-.434c-76.9 4.52-138.24 67.212-138.51 141.242-.16 45.74 22.01 86.165 56.81 112.005 17.398 12.93 28.398 32.866 29.778 53.866h30c-1.38-21-12.38-40.93-29.78-53.86z" fill="#67bfbf"/><g id="_Path_" fill="#6d7486" data-name=" Path "><path d="m312.26 473.83v.17l-10.88 27h-90.76l-10.88-27v-.17z"/><path d="m194.94 424.47h122.11v24.25h-122.11z"/></g><path d="m212.53 158.49.18-.33a18.749 18.749 0 1 1 35.04-9.28v154.5a22.5 22.5 0 0 1 -39.16 15.12l-.01-.01a22.494 22.494 0 0 1 -35.83-18.12v-10.89l.01-.02a29.993 29.993 0 0 1 -7.38-54.45 21.214 21.214 0 0 1 -6.93-6.59 21.444 21.444 0 0 1 5.99-29.73 21.183 21.183 0 0 1 5.92-2.75 30 30 0 0 1 42.17-37.45z" fill="#ffd8b7"/><path d="m341.64 195.94a21.183 21.183 0 0 1 5.92 2.75 21.444 21.444 0 0 1 5.99 29.73 21.214 21.214 0 0 1 -6.93 6.59 29.993 29.993 0 0 1 -7.38 54.45l.01.02v10.89a22.494 22.494 0 0 1 -35.83 18.12l-.01.01a22.5 22.5 0 0 1 -39.16-15.13v-154.5a18.75 18.75 0 1 1 35.04 9.29l.18.33a30.008 30.008 0 0 1 42.17 37.45z" fill="#ffd8b7"/><path d="m185 448h142v27h-142z" fill="#978cac"/><path d="m185 397h142v28h-142z" fill="#978cac"/><g fill="#284268"><path d="m161.445 349.142a67.559 67.559 0 0 1 26.562 42.858h-2.642a6.365 6.365 0 0 0 -6.365 6.365v26.108a5.527 5.527 0 0 0 5.527 5.527h4.473v13h-4.309a5.508 5.508 0 0 0 -5.691 5.718v25.108a5.9 5.9 0 0 0 5.691 6.174h10.927l9.434 23.329a5.922 5.922 0 0 0 5.566 3.671h90.764a5.922 5.922 0 0 0 5.566-3.671l9.434-23.329h10.927a5.9 5.9 0 0 0 5.691-6.174v-25.108a5.508 5.508 0 0 0 -5.691-5.718h-4.309v-13h4.473a5.527 5.527 0 0 0 5.527-5.527v-26.108a6.383 6.383 0 0 0 -6.365-6.365h-2.618a67.707 67.707 0 0 1 26.231-42.525c37.839-28.45 59.542-71.035 59.542-116.834 0-40.095-16.4-77.639-46.173-105.715-31.017-29.251-73.753-44.557-117.25-42.006a155.16 155.16 0 0 0 -101.926 46.338c-27.1 27.649-42.1 63.468-42.231 100.859-.165 46.294 21.425 88.947 59.235 117.025zm135.886 145.858h-82.662l-6.113-15h94.888zm23.669-27h-130v-13h130zm0-50h-73a6 6 0 0 0 0 12h63v13h-110v-13h5a6 6 0 0 0 0-12h-15v-14h130zm-167.989-278.342a143.189 143.189 0 0 1 94.06-42.758c40.206-2.364 79.686 11.763 108.313 38.757 27.345 25.786 42.406 60.229 42.406 96.985 0 41.992-19.957 81.08-54.753 107.242a79.622 79.622 0 0 0 -31.176 52.116h-111.701a79.468 79.468 0 0 0 -31.56-52.492c-34.717-25.78-54.54-64.907-54.389-107.348.122-34.247 13.902-67.098 38.8-92.502z"/><path d="m256 71.789a6 6 0 0 0 6-6v-54.789a6 6 0 0 0 -12 0v54.789a6 6 0 0 0 6 6z"/><path d="m429.956 246h54.789a6 6 0 0 0 0-12h-54.789a6 6 0 0 0 0 12z"/><path d="m27.255 246h54.789a6 6 0 0 0 0-12h-54.789a6 6 0 1 0 0 12z"/><path d="m379.005 122.739a5.986 5.986 0 0 0 4.243-1.757l38.742-38.742a6 6 0 0 0 -8.486-8.485l-38.742 38.745a6 6 0 0 0 4.243 10.242z"/><path d="m94.253 407.491a5.986 5.986 0 0 0 4.243-1.757l38.742-38.742a6 6 0 0 0 -8.486-8.485l-38.742 38.742a6 6 0 0 0 4.243 10.242z"/><path d="m383.248 358.507a6 6 0 0 0 -8.486 8.485l38.738 38.742a6 6 0 0 0 8.486-8.485z"/><path d="m128.752 120.982a6 6 0 0 0 8.486-8.485l-38.738-38.742a6 6 0 0 0 -8.49 8.485z"/><path d="m131.189 238h.022a5.906 5.906 0 0 0 6-5.868c.1-28.222 11.547-55.33 32.227-76.431a120.445 120.445 0 0 1 20.6-16.8 5.992 5.992 0 1 0 -6.517-10.056 132.648 132.648 0 0 0 -22.657 18.51c-22.881 23.346-35.544 53.369-35.657 84.734a5.9 5.9 0 0 0 5.982 5.911z"/><path d="m202.2 131.388a6 6 0 0 0 2.521-.558c1.889-.877 3.827-1.715 5.76-2.491a6 6 0 1 0 -4.471-11.135c-2.127.853-4.259 1.775-6.339 2.74a6 6 0 0 0 2.529 11.444z"/><path d="m282.9 241.555a8.506 8.506 0 0 1 13.4 7.994 6 6 0 1 0 11.9 1.564 20.463 20.463 0 0 0 -10.875-20.826 8.489 8.489 0 0 1 -.126-4.269 8.4 8.4 0 0 1 1.644-3.407 6 6 0 0 0 -9.361-7.509 20.311 20.311 0 0 0 -3.979 8.229 20.542 20.542 0 0 0 -.5 4.841 20.171 20.171 0 0 0 -9.118 3.647 6 6 0 0 0 7.016 9.736z"/><path d="m319.22 220.7a6 6 0 0 0 8.484.1 17.282 17.282 0 0 0 2.023-2.369 5.917 5.917 0 0 0 1.105.112 6 6 0 0 0 2.632-11.395 5.3 5.3 0 0 1 -2.794-6.066 6 6 0 0 0 -11.623-2.985 17.275 17.275 0 0 0 1.459 12.316 5.261 5.261 0 0 1 -1.19 1.806 6 6 0 0 0 -.096 8.481z"/><path d="m285.613 186.89a17.317 17.317 0 0 0 2.872.764 17.586 17.586 0 0 0 .269 1.922 17.261 17.261 0 0 0 1.806 4.934 6 6 0 1 0 10.509-5.792 5.29 5.29 0 0 1 3.587-7.74 5.215 5.215 0 0 1 2.352.057 6 6 0 1 0 2.984-11.623 17.248 17.248 0 0 0 -18.172 6.478 5.2 5.2 0 0 1 -4.114-1.557 6 6 0 0 0 -8.579 8.391 17.135 17.135 0 0 0 6.486 4.166z"/><path d="m304.083 274.1a11.479 11.479 0 0 1 -4.783-1.936 6 6 0 1 0 -6.881 9.836 23.42 23.42 0 0 0 16.461 4.061 23.655 23.655 0 0 0 5.1 11.308 6 6 0 1 0 9.258-7.634 11.627 11.627 0 0 1 -2.255-10.366c.029-.092.055-.185.079-.279a11.588 11.588 0 0 1 2.931-4.936 6 6 0 1 0 -8.48-8.491 23.59 23.59 0 0 0 -5.132 7.7 11.594 11.594 0 0 1 -6.298.737z"/><path d="m286.625 331.875a28.735 28.735 0 0 0 17.464-5.945 27.921 27.921 0 0 0 12.5 2.945 28.452 28.452 0 0 0 28.411-28.5v-6.7a35.969 35.969 0 0 0 11.058-58.806 28.2 28.2 0 0 0 2.459-3.128 27.477 27.477 0 0 0 -7.655-38.054c-.637-.423-1.285-.813-1.952-1.181a36 36 0 0 0 -41.178-43.132c0-.168.018-.334.018-.5a24.875 24.875 0 0 0 -49.75 0v154.5a28.639 28.639 0 0 0 28.625 28.501zm-16.625-183a12.844 12.844 0 0 1 25.688 0 12.706 12.706 0 0 1 -1.308 5.636c-.69.441-1.354.9-2.017 1.391a6 6 0 0 0 7.141 9.653 24.007 24.007 0 0 1 35.037 31.319 5.993 5.993 0 0 0 9.771 6.867 15.418 15.418 0 0 1 1.786 24.215 35.778 35.778 0 0 0 -15.1-3.331 6 6 0 0 0 0 12 24 24 0 0 1 0 48 6 6 0 0 0 -6 6 5.9 5.9 0 0 0 5.875 6 19.112 19.112 0 0 0 2.125-.077v3.827a16.406 16.406 0 1 1 -32.812 0 5.977 5.977 0 1 0 -11.954 0 28.356 28.356 0 0 0 6.124 17.609 16.977 16.977 0 0 1 -7.737 1.891 16.623 16.623 0 0 1 -16.619-16.5z"/><path d="m204.312 148.875c0 .171.013.342.017.513a35.956 35.956 0 0 0 -41.247 43.121c-.666.368-1.322.758-1.96 1.181a27.482 27.482 0 0 0 -7.67 38.055 28.32 28.32 0 0 0 2.49 3.127 35.969 35.969 0 0 0 11.058 58.806v6.7a28.426 28.426 0 0 0 28.375 28.5 28.054 28.054 0 0 0 12.562-2.958 28.593 28.593 0 0 0 46.063-22.545v-71.375a6 6 0 0 0 -12 0v71.375a16.591 16.591 0 0 1 -24.342 14.578 28.345 28.345 0 0 0 6.092-17.578 6 6 0 0 0 -12 0 16.375 16.375 0 1 1 -32.75 0v-3.827a19.112 19.112 0 0 0 2.125.077 5.947 5.947 0 0 0 5.937-6 6.027 6.027 0 0 0 -6.031-6 24 24 0 1 1 -.023-48 6 6 0 0 0 -.006-12 35.782 35.782 0 0 0 -15.1 3.331 15.416 15.416 0 0 1 1.785-24.215 5.994 5.994 0 0 0 9.771-6.867 24 24 0 0 1 35.033-31.319 6 6 0 0 0 7.13-9.653c-.665-.491-1.346-.952-2.037-1.393a12.763 12.763 0 0 1 .125-11.567 12.91 12.91 0 0 1 24.291 5.933v41.125a6 6 0 0 0 12 0v-40.431c0-13.844-11.327-25.6-25.17-25.442a24.832 24.832 0 0 0 -24.518 24.748z"/><path d="m226.792 240.382a8.5 8.5 0 0 1 2.3 1.173 6 6 0 0 0 7.016-9.736 20.149 20.149 0 0 0 -9.118-3.647 20.52 20.52 0 0 0 -.5-4.839 20.306 20.306 0 0 0 -3.979-8.231 6 6 0 1 0 -9.361 7.509 8.491 8.491 0 0 1 1.518 7.676 20.463 20.463 0 0 0 -10.868 20.826 6 6 0 1 0 11.9-1.564 8.4 8.4 0 0 1 .362-3.766 8.511 8.511 0 0 1 10.73-5.401z"/><path d="m178.536 207.145a6 6 0 0 0 2.632 11.395 5.917 5.917 0 0 0 1.1-.112 17.342 17.342 0 0 0 2.032 2.372 6 6 0 0 0 8.388-8.581 5.261 5.261 0 0 1 -1.19-1.806 17.275 17.275 0 0 0 1.459-12.316 6 6 0 1 0 -11.623 2.985 5.3 5.3 0 0 1 -2.798 6.063z"/><path d="m210.931 188.718a6 6 0 1 0 10.509 5.792 17.261 17.261 0 0 0 1.806-4.934 17.586 17.586 0 0 0 .269-1.922 17.27 17.27 0 0 0 9.358-4.93 6 6 0 1 0 -8.579-8.391 5.207 5.207 0 0 1 -4.114 1.557 17.248 17.248 0 0 0 -18.172-6.478 6 6 0 1 0 2.984 11.623 5.3 5.3 0 0 1 5.939 7.683z"/><path d="m188.765 289.733a6 6 0 1 0 9.258 7.634 23.657 23.657 0 0 0 5.1-11.307 23.539 23.539 0 0 0 16.458-4.06 6 6 0 0 0 -6.881-9.831 11.58 11.58 0 0 1 -11.078 1.194 23.594 23.594 0 0 0 -5.132-7.7 6 6 0 1 0 -8.48 8.491 11.588 11.588 0 0 1 2.931 4.936c.024.094.05.187.079.279a11.624 11.624 0 0 1 -2.255 10.366z"/></g></svg>